<?xml version="1.0" encoding="UTF-8" standalone="no"?>
<!-- Created with Inkscape (http://www.inkscape.org/) -->

<svg
   width="512"
   height="512"
   viewBox="0 0 512 512"
   version="1.1"
   id="svg1"
   xml:space="preserve"
   inkscape:version="1.4.3 (0d15f75042, 2025-12-25)"
   sodipodi:docname="CoreProtect-additions.svg"
   xmlns:inkscape="http://www.inkscape.org/namespaces/inkscape"
   xmlns:sodipodi="http://sodipodi.sourceforge.net/DTD/sodipodi-0.dtd"
   xmlns:xlink="http://www.w3.org/1999/xlink"
   xmlns="http://www.w3.org/2000/svg"
   xmlns:svg="http://www.w3.org/2000/svg"><sodipodi:namedview
     id="namedview1"
     pagecolor="#ffffff"
     bordercolor="#000000"
     borderopacity="0.25"
     inkscape:showpageshadow="2"
     inkscape:pageopacity="0.0"
     inkscape:pagecheckerboard="0"
     inkscape:deskcolor="#d1d1d1"
     inkscape:document-units="px"
     inkscape:zoom="1.4142136"
     inkscape:cx="403.05086"
     inkscape:cy="311.12698"
     inkscape:window-width="1920"
     inkscape:window-height="1011"
     inkscape:window-x="0"
     inkscape:window-y="0"
     inkscape:window-maximized="1"
     inkscape:current-layer="g8-6" /><defs
     id="defs1"><linearGradient
       id="linearGradient8"
       inkscape:collect="always"><stop
         style="stop-color:#f16363;stop-opacity:1;"
         offset="0"
         id="stop7" /><stop
         style="stop-color:#569cec;stop-opacity:0.18354535;"
         offset="1"
         id="stop8" /></linearGradient><linearGradient
       inkscape:collect="always"
       xlink:href="#linearGradient8"
       id="linearGradient7"
       gradientUnits="userSpaceOnUse"
       gradientTransform="matrix(2.1503627,0,0,2.1503627,-453.1604,-713.05)"
       x1="232.97061"
       y1="41.449253"
       x2="232.9706"
       y2="507.39056" /><filter
       inkscape:collect="always"
       style="color-interpolation-filters:sRGB"
       id="filter8"
       x="-0.059443403"
       y="-0.10934572"
       width="1.1188868"
       height="1.2186914"><feGaussianBlur
         inkscape:collect="always"
         stdDeviation="18.24256"
         id="feGaussianBlur8" /></filter><filter
       inkscape:collect="always"
       style="color-interpolation-filters:sRGB"
       id="filter9"
       x="-0.10431769"
       y="-0.19524312"
       width="1.2086354"
       height="1.3904862"><feGaussianBlur
         inkscape:collect="always"
         stdDeviation="19.75788"
         id="feGaussianBlur9" /></filter></defs><g
     inkscape:label="Layer 1"
     inkscape:groupmode="layer"
     id="layer1"><g
       id="g4"
       transform="matrix(0.46503783,0,0,0.46503783,224.73621,331.59523)"
       style="stroke-width:2.15035"><rect
         style="fill:#f59c9c;fill-opacity:1;fill-rule:nonzero;stroke:none;stroke-width:6.45311;stroke-linecap:round;stroke-linejoin:round;stroke-dasharray:none"
         id="rect1-6-7"
         width="1100.9857"
         height="1100.9857"
         x="-483.26437"
         y="-713.04999"
         ry="0"
         inkscape:export-filename="Coreprotectaddions.png"
         inkscape:export-xdpi="96"
         inkscape:export-ydpi="96" /><path
         id="rect2-8-2"
         style="fill:url(#linearGradient7);fill-opacity:1;fill-rule:nonzero;stroke:none;stroke-width:6.45311;stroke-linecap:round;stroke-linejoin:round;stroke-dasharray:none"
         d="m 448.6353,-583.26805 v 41.14668 h 41.1467 v -41.14668 z m -567.0489,32.79303 v 86.01452 h 86.014502 v -86.01452 z m 318.5813,31.70105 v 61.85234 H 262.02 v -61.85234 z m -653.3281,63.76749 v 101.54585 h 101.5458 v -101.54585 z m 915.9285,54.35967 v 86.01451 h 86.0145 v -86.01451 z m -286.3174,50.9199 v 61.85654 h 61.8565 v -61.85654 z m -336.83,110.6261 v 101.54582 h 101.545802 v -101.54582 z m 493.5082,56.11102 v 86.014514 h 86.0146 V -182.98979 Z M 169.609,-159.613 v 86.014517 h 86.0145 V -159.613 Z M -372.0346,47.443427 V 152.44163 h 104.9981 V 47.443427 Z m 590.4425,11.344 V 165.51173 H 325.1281 V 58.787427 Z m -372.4705,36.6738 v 80.836003 h 80.836002 V 95.461227 Z M 400.9032,203.03813 v 134.3347 h 134.3346 v -134.3347 z" /><g
         id="g10"
         transform="translate(-2543.3096,-131.61639)"><path
           id="path1-9-7-9"
           style="mix-blend-mode:normal;fill:#000000;fill-opacity:0.535863;fill-rule:nonzero;stroke:none;stroke-width:5.57894;stroke-opacity:1;filter:url(#filter8)"
           d="m 2541.2517,-463.93203 c -4.6442,0.36401 -8.6696,1.32722 -11.8379,2.31817 -3.2152,1.00465 -6.071,2.20327 -8.477,3.34902 -4.748,2.26098 -9.0379,4.94263 -12.6431,7.43432 -3.7371,2.58304 -7.4187,5.43648 -10.9684,8.37719 -7.1767,5.94526 -14.7938,13.06051 -22.5358,20.73298 -7.9956,7.92379 -16.5066,16.8236 -25.241,26.22903 -18.1529,19.54744 -38.7148,42.85497 -58.2061,65.13214 -32.8159,37.50622 -31.0075,35.55414 -63.8233,73.06038 -26.0511,29.6598 -43.0578,48.62467 -62.1323,69.84688 -8.3704,9.31279 -15.9576,17.75343 -22.2863,24.93698 -11.5615,13.12321 -20.6621,24.36402 -28.0271,33.92212 -7.7488,10.05637 -13.4354,18.06198 -18.4195,24.84687 -7.4907,10.19715 -12.7724,16.623975 -17.8518,19.956245 5.3215,1.96066 14.4918,5.60976 29.6232,5.22779 9.9941,-0.25172 22.1008,-2.28061 36.1929,-7.36555 13.4913,-4.868035 28.4963,-12.43215 44.7056,-23.466605 8.9796,-6.11279 18.7296,-13.47541 29.3049,-22.2104 21.5667,-17.81336 45.3406,-40.30756 71.7945,-67.61411 22.1337,-22.847 44.3544,-47.20022 67.0845,-72.64957 6.7451,-7.55192 12.5481,-14.08399 19.1155,-21.49531 -0.4552,1.7307 -0.9708,3.54271 -1.4127,5.25854 -4.5312,17.56208 -8.3374,34.07033 -11.1586,49.60563 -2.9727,16.36905 -4.8597,31.69602 -5.3299,46.0381 -0.464,14.15162 0.3765,29.29456 4.2753,44.08807 3.7681,14.29759 10.4362,28.4136 21.4788,40.8887 10.6923,12.07931 24.2875,21.259025 40.1974,27.782365 15.4967,6.35387 33.0765,10.15046 52.3964,11.92344 35.3163,3.35757 74.5029,4.39121 112.0251,4.02588 40.69,-0.39624 79.7948,-2.43687 111.1726,-5.13994 51.5037,-4.43659 82.0217,-10.38043 96.3728,-17.87085 20.095,-10.48812 19.1114,-31.806195 18.4148,-37.518185 -0.7056,-5.78194 -4.7515,-26.50625 -25.9821,-32.49013 -15.8934,-4.47946 -44.8,-3.57233 -95.5581,-0.17375 -30.0664,2.01317 -68.7265,4.96317 -107.0801,6.99724 -36.0672,1.9129 -72.3422,3.05571 -104.3677,2.21842 -13.8189,-0.28884 -23.6419,-1.87333 -30.6017,-3.87624 -6.77,-1.94845 -10.81,-4.28017 -13.2488,-6.27293 -2.5903,-2.11645 -4.8694,-5.05867 -6.5745,-10.02084 -1.8613,-5.4172 -2.8515,-12.79417 -2.5415,-22.25307 0.3079,-9.39113 1.8886,-20.69896 4.9286,-34.32837 2.876,-12.89512 6.9114,-27.2371 12.016,-43.37297 10.1658,-32.13444 22.7481,-65.95861 37.0053,-107.11821 1.9453,-5.68343 3.6287,-11.07748 4.9713,-16.11082 1.3257,-4.96957 2.4635,-10.11339 3.1233,-15.19395 0.6261,-4.81728 1.0636,-11.31381 -0.088,-18.38628 -0.6026,-3.68325 -1.7438,-8.19942 -3.9857,-12.97564 -2.2933,-4.88549 -5.8105,-10.18012 -11.0612,-14.84961 -5.3608,-4.76729 -11.5724,-8.0242 -18.0251,-9.83806 -6.2772,-1.76426 -12.0604,-1.97093 -16.7285,-1.60563 z" /><path
           id="path1-9-7"
           style="fill:#ededed;fill-opacity:1;fill-rule:nonzero;stroke:none;stroke-width:5.57894;stroke-opacity:1"
           d="m 2507.1914,-477.51495 c -4.6442,0.36401 -8.6696,1.32722 -11.8379,2.31817 -3.2152,1.00465 -6.071,2.20327 -8.477,3.34902 -4.748,2.26098 -9.0379,4.94263 -12.6431,7.43432 -3.7371,2.58304 -7.4187,5.43648 -10.9684,8.37719 -7.1767,5.94526 -14.7938,13.06051 -22.5358,20.73298 -7.9956,7.92379 -16.5066,16.8236 -25.241,26.22903 -18.1529,19.54744 -38.7148,42.85497 -58.2061,65.13214 -32.8159,37.50622 -31.0075,35.55414 -63.8233,73.06038 -26.0511,29.6598 -43.0578,48.62467 -62.1323,69.84688 -8.3704,9.31279 -15.9576,17.75343 -22.2863,24.93698 -11.5615,13.12321 -20.6621,24.36402 -28.0271,33.92212 -7.7488,10.05637 -13.4354,18.06198 -18.4195,24.84687 -7.4907,10.19717 -12.7724,16.624 -17.8518,19.956265 5.3215,1.96066 14.4918,5.60976 29.6232,5.22779 9.9941,-0.25172 22.1008,-2.28061 36.1929,-7.36555 13.4913,-4.868035 28.4963,-12.432165 44.7056,-23.466625 8.9796,-6.11279 18.7296,-13.47541 29.3049,-22.2104 21.5667,-17.81336 45.3406,-40.30756 71.7945,-67.61411 22.1337,-22.847 44.3544,-47.20022 67.0845,-72.64957 6.7451,-7.55192 12.5481,-14.08399 19.1155,-21.49531 -0.4552,1.7307 -0.9708,3.54271 -1.4127,5.25854 -4.5312,17.56208 -8.3374,34.07033 -11.1586,49.60563 -2.9727,16.36905 -4.8597,31.69602 -5.3299,46.0381 -0.464,14.15162 0.3765,29.29456 4.2753,44.08807 3.7681,14.29759 10.4362,28.4136 21.4788,40.8887 10.6923,12.07932 24.2875,21.259045 40.1974,27.782385 15.4967,6.35387 33.0766,10.15046 52.3965,11.92344 35.3162,3.35757 74.5028,4.39121 112.0251,4.02588 40.69,-0.39624 79.7948,-2.43687 111.1726,-5.13994 51.5037,-4.43659 82.0217,-10.38043 96.3728,-17.870845 20.095,-10.48814 19.1114,-31.80622 18.4148,-37.51821 -0.7056,-5.78194 -4.7515,-26.50625 -25.9821,-32.49013 -15.8934,-4.47946 -44.8,-3.57233 -95.5581,-0.17375 -30.0664,2.01317 -68.7265,4.96317 -107.0801,6.99724 -36.0672,1.9129 -72.3422,3.05571 -104.3677,2.21842 -13.8189,-0.28884 -23.6419,-1.87333 -30.6017,-3.87624 -6.77,-1.94845 -10.81,-4.28017 -13.2488,-6.27293 -2.5903,-2.11645 -4.8694,-5.05867 -6.5745,-10.02084 -1.8613,-5.4172 -2.8515,-12.79417 -2.5415,-22.25307 0.3079,-9.39113 1.8886,-20.69896 4.9286,-34.32837 2.876,-12.89512 6.9114,-27.2371 12.016,-43.37297 10.1658,-32.13444 22.7481,-65.95861 37.0053,-107.11821 1.9453,-5.68343 3.6287,-11.07748 4.9713,-16.11082 1.3257,-4.96957 2.4635,-10.11339 3.1233,-15.19395 0.6261,-4.81728 1.0636,-11.31381 -0.088,-18.38628 -0.6026,-3.68325 -1.7438,-8.19942 -3.9857,-12.97564 -2.2933,-4.88549 -5.8105,-10.18012 -11.0612,-14.84961 -5.3608,-4.76729 -11.5724,-8.0242 -18.0251,-9.83806 -6.2772,-1.76426 -12.0604,-1.97093 -16.7285,-1.60563 z" /></g><g
         id="g9"
         transform="matrix(1.1693502,0,0,1.1890489,-3001.6603,-103.93469)"
         style="stroke-width:1.82363"><g
           id="g8-6"
           style="mix-blend-mode:normal;fill:#000000;fill-opacity:0.697196;stroke-width:1.57456;filter:url(#filter9)"
           transform="matrix(1.1581908,0,0,1.1581908,-306.98121,56.82482)"><path
             id="path3-6-2-7"
             style="fill:#000000;fill-opacity:0.697196;fill-rule:nonzero;stroke:none;stroke-width:4.72516;stroke-linecap:round;stroke-linejoin:round;stroke-dasharray:none"
             d="M 2711.7767,-35.484113 A 123.70602,121.15246 0 0 0 2588.0697,85.668195 123.70602,121.15246 0 0 0 2711.7767,206.82058 123.70602,121.15246 0 0 0 2835.4818,85.668195 123.70602,121.15246 0 0 0 2711.7767,-35.484113 Z m 0.2832,39.0311988 a 79.160507,81.553986 0 0 1 79.1602,81.5547092 79.160507,81.553986 0 0 1 -79.1602,81.552685 79.160507,81.553986 0 0 1 -79.1601,-81.552685 79.160507,81.553986 0 0 1 79.1601,-81.5547092 z" /><path
             id="path3-4-6-2-3"
             style="fill:#000000;fill-opacity:0.697196;fill-rule:nonzero;stroke:none;stroke-width:4.72516;stroke-linecap:round;stroke-linejoin:round;stroke-dasharray:none"
             d="m 2504.6263,-34.917713 a 123.70602,121.15246 0 0 0 -123.707,121.152308 123.70602,121.15246 0 0 0 123.707,121.152385 123.70602,121.15246 0 0 0 101.2559,-51.5547 l -37.1172,-21.9668 a 79.160507,81.553986 0 0 1 -63.8555,33.3554 79.160507,81.553986 0 0 1 -79.1601,-81.552685 79.160507,81.553986 0 0 1 79.1601,-81.5547088 79.160507,81.553986 0 0 1 64.6895,34.5508058 l 34.9766,-23.816405 a 123.70602,121.15246 0 0 0 -99.9493,-49.7656 z" /><path
             id="text4-4-6-6"
             style="font-size:226.802px;font-family:'Adwaita Sans';-inkscape-font-specification:'Adwaita Sans';text-align:end;text-anchor:end;stroke-width:4.72516;stroke-linecap:round;stroke-linejoin:round"
             d="M 2702.9635,136.74803 V 30.434602 h 17.9403 V 136.74803 Z M 2658.7769,92.229289 V 74.953352 h 106.3135 v 17.275937 z" /></g><g
           id="g8"
           style="fill:#ededed;fill-opacity:1;stroke-width:1.57456"
           transform="matrix(1.1581908,0,0,1.1581908,-497.35564,-60.326207)"><path
             id="path3-6-2"
             style="fill:#ededed;fill-opacity:1;fill-rule:nonzero;stroke:none;stroke-width:4.72516;stroke-linecap:round;stroke-linejoin:round;stroke-dasharray:none"
             d="m 2846.1496,45.603725 a 123.70602,121.15246 0 0 0 -123.707,121.152305 123.70602,121.15246 0 0 0 123.707,121.1524 123.70602,121.15246 0 0 0 123.7051,-121.1524 123.70602,121.15246 0 0 0 -123.7051,-121.152305 z m 0.2832,39.0312 a 79.160507,81.553986 0 0 1 79.1602,81.554705 79.160507,81.553986 0 0 1 -79.1602,81.5527 79.160507,81.553986 0 0 1 -79.1601,-81.5527 79.160507,81.553986 0 0 1 79.1601,-81.554705 z" /><path
             id="path3-4-6-2"
             style="fill:#ededed;fill-opacity:1;fill-rule:nonzero;stroke:none;stroke-width:4.72516;stroke-linecap:round;stroke-linejoin:round;stroke-dasharray:none"
             d="m 2638.9992,46.170125 a 123.70602,121.15246 0 0 0 -123.707,121.152305 123.70602,121.15246 0 0 0 123.707,121.1524 123.70602,121.15246 0 0 0 101.2559,-51.5547 l -37.1172,-21.9668 a 79.160507,81.553986 0 0 1 -63.8555,33.3554 79.160507,81.553986 0 0 1 -79.1601,-81.5527 79.160507,81.553986 0 0 1 79.1601,-81.554705 79.160507,81.553986 0 0 1 64.6895,34.550805 l 34.9766,-23.816405 a 123.70602,121.15246 0 0 0 -99.9493,-49.7656 z" /><path
             id="text4-4-6"
             style="font-size:226.802px;font-family:'Adwaita Sans';-inkscape-font-specification:'Adwaita Sans';text-align:end;text-anchor:end;stroke-width:4.72516;stroke-linecap:round;stroke-linejoin:round"
             d="M 2837.3364,217.83588 V 111.52244 h 17.9403 v 106.31344 z m -44.1866,-44.51875 v -17.27594 h 106.3135 v 17.27594 z" /></g></g></g></g></svg>
